<svg xmlns="http://www.w3.org/2000/svg" width="1800" height="1000" viewBox="0 0 1800 1000" role="img"><defs><filter id="shadow" x="-15%" y="-15%" width="130%" height="135%"><feDropShadow dx="0" dy="18" stdDeviation="18" flood-color="#0f2d42" flood-opacity="0.13"/></filter><linearGradient id="warm" x1="0" y1="0" x2="1" y2="1"><stop offset="0" stop-color="#fffaf4"/><stop offset="1" stop-color="#efe8df"/></linearGradient></defs><rect width="1800" height="1000" fill="#f7f1ea"/><circle cx="1625" cy="150" r="220" fill="#c95720" opacity="0.09"/><circle cx="610" cy="180" r="240" fill="#e7cdb7" opacity="0.16"/><g transform="translate(680 230)" filter="url(#shadow)"><rect x="0" y="0" width="430" height="430" rx="36" fill="#fffaf4" stroke="#dfd0c2" stroke-width="2" opacity="1"/><text x="52" y="76" font-family="Inter, Arial, sans-serif" font-size="36" font-weight="700" fill="#0f2d42" text-anchor="start">Kalender</text><g><rect x="52" y="128" width="118" height="44" rx="22" fill="#f7f1ea" stroke="#d8c7b8" stroke-width="2" opacity="1"/><text x="71" y="157" font-family="Inter, Arial, sans-serif" font-size="18" font-weight="750" fill="#24465a" text-anchor="start">Man</text></g><g><rect x="135" y="128" width="118" height="44" rx="22" fill="#f7f1ea" stroke="#d8c7b8" stroke-width="2" opacity="1"/><text x="154" y="157" font-family="Inter, Arial, sans-serif" font-size="18" font-weight="750" fill="#24465a" text-anchor="start">Tir</text></g><g><rect x="218" y="128" width="118" height="44" rx="22" fill="#f7f1ea" stroke="#d8c7b8" stroke-width="2" opacity="1"/><text x="237" y="157" font-family="Inter, Arial, sans-serif" font-size="18" font-weight="750" fill="#24465a" text-anchor="start">Ons</text></g><g><rect x="301" y="128" width="118" height="44" rx="22" fill="#f7f1ea" stroke="#d8c7b8" stroke-width="2" opacity="1"/><text x="320" y="157" font-family="Inter, Arial, sans-serif" font-size="18" font-weight="750" fill="#24465a" text-anchor="start">Tor</text></g><rect x="52" y="230" width="270" height="76" rx="20" fill="#c95720" stroke="#c95720" stroke-width="2" opacity="1"/><text x="187" y="278" font-family="Inter, Arial, sans-serif" font-size="29" font-weight="800" fill="#fff" text-anchor="middle">30 min</text></g><g transform="translate(1210 230)" filter="url(#shadow)"><rect x="0" y="0" width="500" height="430" rx="36" fill="#fffaf4" stroke="#dfd0c2" stroke-width="2" opacity="1"/><text x="52" y="76" font-family="Inter, Arial, sans-serif" font-size="36" font-weight="700" fill="#0f2d42" text-anchor="start">Forberedelse</text><circle cx="70" cy="145" r="19" fill="#c95720"/><path d="M61 145 l7 7 l14 -16" fill="none" stroke="#fff" stroke-width="4" stroke-linecap="round" stroke-linejoin="round"/><text x="116" y="154" font-family="Inter, Arial, sans-serif" font-size="27" font-weight="750" fill="#24465a" text-anchor="start">Tidstyv</text><circle cx="70" cy="215" r="19" fill="#c95720"/><path d="M61 215 l7 7 l14 -16" fill="none" stroke="#fff" stroke-width="4" stroke-linecap="round" stroke-linejoin="round"/><text x="116" y="224" font-family="Inter, Arial, sans-serif" font-size="27" font-weight="750" fill="#24465a" text-anchor="start">Systemer</text><circle cx="70" cy="285" r="19" fill="#c95720"/><path d="M61 285 l7 7 l14 -16" fill="none" stroke="#fff" stroke-width="4" stroke-linecap="round" stroke-linejoin="round"/><text x="116" y="294" font-family="Inter, Arial, sans-serif" font-size="27" font-weight="750" fill="#24465a" text-anchor="start">Risiko</text><circle cx="70" cy="355" r="19" fill="#c95720"/><path d="M61 355 l7 7 l14 -16" fill="none" stroke="#fff" stroke-width="4" stroke-linecap="round" stroke-linejoin="round"/><text x="116" y="364" font-family="Inter, Arial, sans-serif" font-size="27" font-weight="750" fill="#24465a" text-anchor="start">Neste steg</text></g></svg>
